<svg width="288" height="163" viewBox="0 0 288 163" fill="none" xmlns="http://www.w3.org/2000/svg">
<path d="M40.6643 72.563V67.2275L43.6503 66.6939C45.1434 66.4094 46.0676 65.947 46.4231 65.3067C46.7786 64.6664 46.9563 63.4926 46.9563 61.7853V10.7777C46.9563 9.07037 46.6719 7.86099 46.1032 7.14959C45.6055 6.43819 44.6101 6.01135 43.1171 5.86907L39.5978 5.33551V0H63.3797V5.33551L59.8604 5.86907C58.3673 6.01135 57.3364 6.43819 56.7677 7.14959C56.27 7.86099 56.0212 9.07037 56.0212 10.7777V61.0383C56.0212 62.6745 56.3055 63.7772 56.8743 64.3463C57.4431 64.8443 58.6162 65.0933 60.3936 65.0933H77.3502C78.701 65.0933 79.6608 64.8443 80.2296 64.3463C80.8695 63.7772 81.2605 62.9235 81.4027 61.7853L82.0426 57.3034H88.228V72.563H40.6643Z" fill="black"/>
<path d="M98.3093 72.563V67.2275L101.829 66.6939C103.108 66.4805 104.068 66.0537 104.708 65.4134C105.348 64.702 105.668 63.4926 105.668 61.7853V10.7777C105.668 9.07037 105.348 7.89656 104.708 7.2563C104.068 6.54489 103.108 6.08249 101.829 5.86907L98.3093 5.33551V0H122.091V5.33551L118.572 5.86907C117.292 6.08249 116.332 6.54489 115.692 7.2563C115.053 7.89656 114.733 9.07037 114.733 10.7777V61.7853C114.733 63.4926 115.053 64.702 115.692 65.4134C116.332 66.0537 117.292 66.4805 118.572 66.6939L122.091 67.2275V72.563H98.3093Z" fill="black"/>
<path d="M135.323 72.563V67.2275L138.522 66.8007C139.802 66.6584 140.726 66.2315 141.295 65.5201C141.863 64.8087 142.148 63.5638 142.148 61.7853V10.7777C142.148 8.99923 141.935 7.78985 141.508 7.14959C141.081 6.43819 140.193 5.97577 138.842 5.76235L135.749 5.33551V0H181.926V14.1925H175.954L175.208 10.8845C174.923 9.60393 174.461 8.71467 173.821 8.21669C173.182 7.71871 171.973 7.46972 170.196 7.46972H154.519C153.026 7.46972 152.101 7.78985 151.746 8.43011C151.39 9.07038 151.213 10.4576 151.213 12.5918V34.7876L175.101 35.001V41.5103L151.213 41.7237V61.7853C151.213 63.5638 151.497 64.7732 152.066 65.4134C152.706 66.0537 153.843 66.4805 155.479 66.6939L159.531 67.2275V72.563H135.323Z" fill="black"/>
<path d="M193.136 72.563V67.2275L195.589 66.6939C196.94 66.4094 197.899 65.947 198.468 65.3067C199.108 64.6664 199.428 63.4926 199.428 61.7853V10.7777C199.428 9.07037 199.072 7.89656 198.361 7.2563C197.651 6.61603 196.513 6.11805 194.949 5.76235L193.136 5.33551V0H241.873V15.2596H235.687L235.047 10.8845C234.905 9.67507 234.443 8.82138 233.661 8.3234C232.95 7.75428 231.706 7.46972 229.928 7.46972H212.332C210.768 7.46972 209.737 7.82542 209.239 8.53682C208.742 9.17708 208.493 10.5287 208.493 12.5918V32.6534H233.448V39.5895H208.493V59.9712C208.493 62.0343 208.742 63.4215 209.239 64.1329C209.737 64.7732 210.768 65.0933 212.332 65.0933H231.102C232.879 65.0933 234.123 64.8443 234.834 64.3463C235.616 63.8483 236.078 62.9946 236.221 61.7853L236.86 57.3034H243.046V72.563H193.136Z" fill="black"/>
<path d="M0 161.55V148.532L4.2658 147.571C4.76348 147.5 5.08342 147.393 5.22561 147.251C5.3678 147.038 5.4389 146.646 5.4389 146.077V104.46C5.4389 104.033 5.3678 103.713 5.22561 103.5C5.08342 103.286 4.76348 103.109 4.2658 102.966L0 101.899V88.9872H32.3135V102.006L28.1543 103.073C27.6566 103.215 27.3367 103.393 27.1945 103.607C27.0523 103.82 26.9812 104.14 26.9812 104.567V118.226H44.471V104.567C44.471 104.14 44.3644 103.82 44.1511 103.607C44.0089 103.322 43.7245 103.144 43.2979 103.073L39.1387 102.006V88.9872H71.4522V101.899L67.1864 102.966C66.7598 103.037 66.4399 103.215 66.2266 103.5C66.0844 103.713 66.0133 104.033 66.0133 104.46V146.077C66.0133 146.575 66.0844 146.931 66.2266 147.144C66.3688 147.287 66.6887 147.429 67.1864 147.571L71.4522 148.532V161.55H39.1387V148.745L43.4045 147.571C43.8311 147.5 44.1155 147.358 44.2577 147.144C44.3999 146.931 44.471 146.575 44.471 146.077V133.165H26.9812V146.077C26.9812 146.575 27.0523 146.931 27.1945 147.144C27.3367 147.287 27.6211 147.429 28.0477 147.571L32.3135 148.745V161.55H0Z" fill="black"/>
<path d="M76.2762 161.55V148.318L80.9686 147.358C81.6085 147.216 81.964 146.895 82.0351 146.397L99.8448 88.9872H126.399L144.102 146.397C144.174 146.895 144.529 147.216 145.169 147.358L149.861 148.318V161.55H116.695V148.532L120.107 147.785C120.961 147.571 121.387 147.18 121.387 146.611C121.387 146.184 121.352 145.864 121.28 145.65L120.961 144.37H105.07L104.75 145.757C104.679 145.971 104.644 146.255 104.644 146.611C104.644 147.18 105.07 147.571 105.924 147.785L109.443 148.532V161.55H76.2762ZM112.536 109.155L107.95 130.391H118.081L113.815 109.155H112.536Z" fill="black"/>
<path d="M185.583 162.831C176.554 162.831 169.089 160.697 163.188 156.428C157.287 152.089 154.336 144.832 154.336 134.659V117.052C154.336 107.164 157.251 99.8361 163.081 95.0697C168.982 90.3033 176.483 87.9201 185.583 87.9201C190.987 87.9201 195.608 88.4892 199.447 89.6275C203.286 90.6946 207.659 92.3308 212.564 94.5362L211.391 115.878H193.582L192.409 106.168C190.56 105.385 188.285 104.994 185.583 104.994C179.113 104.994 175.879 108.764 175.879 116.305V134.126C175.879 137.896 176.767 140.777 178.545 142.769C180.322 144.69 182.846 145.65 186.116 145.65C190.596 145.65 194.648 144.121 198.274 141.062H211.605V156.748C208.263 158.385 204.104 159.807 199.127 161.017C194.15 162.226 189.636 162.831 185.583 162.831Z" fill="black"/>
<path d="M219.747 161.55V148.532L223.906 147.571C224.404 147.429 224.724 147.251 224.866 147.038C225.008 146.824 225.079 146.504 225.079 146.077V104.46C225.079 104.033 225.008 103.713 224.866 103.5C224.724 103.286 224.404 103.109 223.906 102.966L219.747 101.899V88.9872H251.527V102.006L247.688 103.073C247.262 103.215 246.977 103.393 246.835 103.607C246.693 103.749 246.622 104.069 246.622 104.567V117.159L257.926 103.393L254.513 101.899V88.9872H287.573V101.152L280.855 104.46L264.431 123.455L280.748 146.291L288 147.785V161.55H261.765L250.568 136.367L246.622 140.848V146.184C246.622 146.611 246.693 146.931 246.835 147.144C246.977 147.287 247.262 147.429 247.688 147.571L251.634 148.745V161.55H219.747Z" fill="black"/>
</svg>
