<svg width="40" height="40" viewBox="0 0 40 40" fill="none" xmlns="http://www.w3.org/2000/svg">
<path d="M20 0C9 0 0 9 0 20C0 31 9 40 20 40C31 40 40 31 40 20C40 9 31 0 20 0ZM29.6 15.1C29.6 15.3 29.6 15.5 29.6 15.7C29.6 22.2 24.6 29.8 15.5 29.8C12.7 29.8 10.1 29 7.9 27.6C8.3 27.6 8.7 27.7 9.1 27.7C11.4 27.7 13.5 26.9 15.2 25.6C13 25.6 11.2 24.1 10.6 22.2C10.9 22.3 11.2 22.3 11.5 22.3C12 22.3 12.4 22.2 12.8 22.1C10.5 21.6 8.8 19.6 8.8 17.3C8.8 17.3 8.8 17.3 8.8 17.2C9.5 17.6 10.2 17.8 11 17.8C9.8 16.8 9 15.3 9 13.6C9 12.7 9.2 11.8 9.7 11.1C12.1 14.1 15.8 16.1 19.9 16.3C19.8 15.9 19.8 15.6 19.8 15.2C19.8 12.5 22 10.3 24.7 10.3C26.1 10.3 27.4 10.9 28.3 11.9C29.4 11.7 30.5 11.3 31.4 10.7C31 11.9 30.2 12.8 29.2 13.4C30.2 13.3 31.2 13 32 12.6C31.4 13.5 30.5 14.4 29.6 15.1Z" fill="white"/>
</svg>
